<svg xmlns="http://www.w3.org/2000/svg" width="720" height="380" viewBox="0 0 720 380" font-family="ui-sans-serif,system-ui,sans-serif">
<rect width="720" height="380" fill="#09090b"/>
<text x="48" y="28" fill="#fafafa" font-size="16" font-weight="600">InjecAgent — unauthorized-write rate: raw vs NIL</text>
<text x="48" y="46" fill="#a1a1aa" font-size="11">4216 evaluations · benign task-success 100% in every arm · UWR via NIL = 0%</text>
<line x1="48" y1="316.0" x2="708" y2="316.0" stroke="#27272a" stroke-width="1"/>
<text x="42" y="319.0" fill="#a1a1aa" font-size="10" text-anchor="end">0.0%</text>
<line x1="48" y1="186.0" x2="708" y2="186.0" stroke="#27272a" stroke-width="1"/>
<text x="42" y="189.0" fill="#a1a1aa" font-size="10" text-anchor="end">2.8%</text>
<line x1="48" y1="56.0" x2="708" y2="56.0" stroke="#27272a" stroke-width="1"/>
<text x="42" y="59.0" fill="#a1a1aa" font-size="10" text-anchor="end">5.6%</text>
<rect x="88.6" y="187.7" width="45.4" height="128.3" fill="#f87171" rx="2"/>
<text x="111.3" y="183.7" fill="#f87171" font-size="10" text-anchor="middle">2.75%</text>
<rect x="140.0" y="314.0" width="45.4" height="2.0" fill="#34d399" rx="2"/>
<text x="162.7" y="310.0" fill="#34d399" font-size="10" text-anchor="middle">0%</text>
<text x="137.0" y="334" fill="#fafafa" font-size="10.5" text-anchor="middle">gpt-oss-120b</text>
<text x="137.0" y="349" fill="#a1a1aa" font-size="10" text-anchor="middle">base</text>
<rect x="250.6" y="294.1" width="45.4" height="21.9" fill="#f87171" rx="2"/>
<text x="273.3" y="290.1" fill="#f87171" font-size="10" text-anchor="middle">0.47%</text>
<rect x="302.0" y="314.0" width="45.4" height="2.0" fill="#34d399" rx="2"/>
<text x="324.7" y="310.0" fill="#34d399" font-size="10" text-anchor="middle">0%</text>
<text x="299.0" y="334" fill="#fafafa" font-size="10.5" text-anchor="middle">gpt-oss-120b</text>
<text x="299.0" y="349" fill="#a1a1aa" font-size="10" text-anchor="middle">enhanced</text>
<rect x="412.6" y="108.0" width="45.4" height="208.0" fill="#f87171" rx="2"/>
<text x="435.3" y="104.0" fill="#f87171" font-size="10" text-anchor="middle">4.46%</text>
<rect x="464.0" y="314.0" width="45.4" height="2.0" fill="#34d399" rx="2"/>
<text x="486.7" y="310.0" fill="#34d399" font-size="10" text-anchor="middle">0%</text>
<text x="461.0" y="334" fill="#fafafa" font-size="10.5" text-anchor="middle">zai-glm-4.7</text>
<text x="461.0" y="349" fill="#a1a1aa" font-size="10" text-anchor="middle">base</text>
<rect x="574.6" y="316.0" width="45.4" height="0.0" fill="#f87171" rx="2"/>
<text x="597.3" y="312.0" fill="#f87171" font-size="10" text-anchor="middle">0.00%</text>
<rect x="626.0" y="314.0" width="45.4" height="2.0" fill="#34d399" rx="2"/>
<text x="648.7" y="310.0" fill="#34d399" font-size="10" text-anchor="middle">0%</text>
<text x="623.0" y="334" fill="#fafafa" font-size="10.5" text-anchor="middle">zai-glm-4.7</text>
<text x="623.0" y="349" fill="#a1a1aa" font-size="10" text-anchor="middle">enhanced</text>
<rect x="48" y="353" width="11" height="11" fill="#f87171" rx="2"/>
<text x="64" y="362" fill="#a1a1aa" font-size="11">raw (ungated)</text>
<rect x="178" y="353" width="11" height="11" fill="#34d399" rx="2"/>
<text x="194" y="362" fill="#a1a1aa" font-size="11">with NIL (propose→approve→commit)</text>
</svg>